<svg width="14" height="16" viewBox="0 0 14 16" fill="none" xmlns="http://www.w3.org/2000/svg">
<path d="M10.4628 0.588061V1.41597C12.8029 1.64949 14 2.97981 14 5.37156V11.9878C14 14.6484 12.5256 16 9.62416 16H4.37585C1.4744 16 0 14.6484 0 11.9878V5.37156C0 3.77942 0.527536 2.64016 1.60966 1.97499C1.78024 1.85523 2.00093 1.84687 2.17935 1.95341C2.35776 2.05995 2.46312 2.26301 2.45132 2.47759C2.43951 2.69216 2.31259 2.88124 2.12367 2.96566C1.40676 3.40438 1.0686 4.16861 1.0686 5.37156V5.58385H10.9362C11.2313 5.58385 11.4705 5.83413 11.4705 6.14287C11.4705 6.45161 11.2313 6.70189 10.9362 6.70189H1.0686V11.9878C1.0686 14.0187 2.02899 14.8607 4.37585 14.8749H9.62416C11.9372 14.8749 12.9246 14.0116 12.9246 11.9807V5.36449C12.9246 3.59544 12.1739 2.73922 10.4628 2.53401V3.0718C10.4233 3.35845 10.1835 3.56771 9.90686 3.55679C9.63026 3.54587 9.40614 3.31829 9.38744 3.02935V0.538527C9.39268 0.388946 9.45504 0.247814 9.56056 0.14673C9.66607 0.0456471 9.80592 -0.00694247 9.94879 0.000736952C10.2434 0.0196887 10.4706 0.279385 10.4628 0.588061Z" fill="#200E32"/>
<path d="M4.44016 3.43423C4.33849 3.53927 4.20084 3.59733 4.05797 3.59544C3.76553 3.58772 3.5334 3.33539 3.5372 3.02935V0.588061C3.56795 0.301669 3.79943 0.0851579 4.07488 0.0851579C4.35033 0.0851579 4.58181 0.301669 4.61256 0.588061V1.35937H7.66957C7.96465 1.35937 8.20387 1.60965 8.20387 1.91838C8.20387 2.22712 7.96465 2.4774 7.66957 2.4774H4.59903V3.03642C4.59905 3.18592 4.54183 3.32919 4.44016 3.43423Z" fill="#200E32"/>
<path d="M10.2599 8.49216C9.88638 8.49216 9.58358 8.80898 9.58358 9.19978C9.58358 9.59059 9.88638 9.9074 10.2599 9.9074C10.6334 9.9074 10.9362 9.59059 10.9362 9.19978C10.9362 9.01088 10.8641 8.82981 10.7358 8.6969C10.6075 8.56399 10.4337 8.49027 10.2531 8.49216H10.2599Z" fill="#200E32"/>
<path d="M6.3372 9.19978C6.3372 8.80898 6.64 8.49216 7.01353 8.49216C7.38705 8.49216 7.68986 8.80898 7.68986 9.19978C7.68986 9.59059 7.38705 9.9074 7.01353 9.9074C6.64 9.9074 6.3372 9.59059 6.3372 9.19978Z" fill="#200E32"/>
<path d="M3.77391 8.49216C3.40039 8.49216 3.09758 8.80898 3.09758 9.19978C3.09758 9.59059 3.40039 9.9074 3.77391 9.9074C4.14744 9.9074 4.45024 9.59059 4.45024 9.19978C4.45025 9.01088 4.37807 8.82981 4.24976 8.6969C4.12146 8.56399 3.94769 8.49027 3.76715 8.49216H3.77391Z" fill="#200E32"/>
<path d="M9.58358 12.0656C9.58358 11.6748 9.88638 11.358 10.2599 11.358H10.2531C10.4337 11.3561 10.6075 11.4298 10.7358 11.5628C10.8641 11.6957 10.9362 11.8767 10.9362 12.0656C10.9362 12.4564 10.6334 12.7733 10.2599 12.7733C9.88638 12.7733 9.58358 12.4564 9.58358 12.0656Z" fill="#200E32"/>
<path d="M7.01353 11.358C6.64 11.358 6.3372 11.6748 6.3372 12.0656C6.3372 12.4564 6.64 12.7733 7.01353 12.7733C7.38705 12.7733 7.68986 12.4564 7.68986 12.0656C7.68986 11.6748 7.38705 11.358 7.01353 11.358Z" fill="#200E32"/>
<path d="M3.09758 12.0656C3.09758 11.6748 3.40039 11.358 3.77391 11.358H3.76715C3.94769 11.3561 4.12146 11.4298 4.24976 11.5628C4.37807 11.6957 4.45025 11.8767 4.45024 12.0656C4.45024 12.4564 4.14744 12.7733 3.77391 12.7733C3.40039 12.7733 3.09758 12.4564 3.09758 12.0656Z" fill="#200E32"/>
</svg>
