<svg width="120" height="114" viewBox="0 0 120 114" fill="none" xmlns="http://www.w3.org/2000/svg">
<g filter="url(#filter0_d_0:188)">
<circle cx="60" cy="50" r="20" fill="#F1F4F8"/>
</g>
<path d="M67.5916 45.7316C67.274 45.3569 66.8124 45.1414 66.3268 45.1414H57.731C57.3998 45.1414 57.131 45.4157 57.131 45.7536C57.131 46.0916 57.3998 46.3659 57.731 46.3659H66.3268C66.5148 46.3659 66.6316 46.4704 66.6844 46.5324C66.7372 46.5953 66.822 46.7284 66.7948 46.9178L66.0356 52.2723C65.9756 52.692 65.6172 53.0087 65.2012 53.0087H56.4726C56.0303 53.0087 55.6695 52.6699 55.6327 52.2209L54.8623 42.8555C54.8399 42.5779 54.6359 42.3502 54.3671 42.3028L52.7023 42.0081C52.3719 41.9542 52.0648 42.1738 52.0088 42.5077C51.9528 42.8408 52.1712 43.1576 52.4975 43.2155L53.7055 43.4286L54.4367 52.323C54.5263 53.412 55.4015 54.2333 56.4726 54.2333H65.2012C66.21 54.2333 67.0788 53.4659 67.2228 52.4479L67.9828 47.0933C68.0524 46.6018 67.9092 46.1063 67.5916 45.7316Z" fill="#07172E"/>
<path d="M55.1264 56.764C55.1264 56.0823 55.6703 55.5272 56.3383 55.5272C57.0063 55.5272 57.5495 56.0823 57.5495 56.764C57.5495 57.4457 57.0063 58 56.3383 58C55.6703 58 55.1264 57.4457 55.1264 56.764Z" fill="#07172E"/>
<path d="M64.1285 56.764C64.1285 56.0823 64.6717 55.5272 65.3397 55.5272C66.0077 55.5272 66.5517 56.0823 66.5517 56.764C66.5517 57.4457 66.0077 58 65.3397 58C64.6717 58 64.1285 57.4457 64.1285 56.764Z" fill="#07172E"/>
<path d="M64.519 48.7714C64.519 49.1094 64.2502 49.3837 63.919 49.3837H61.7007C61.3687 49.3837 61.1007 49.1094 61.1007 48.7714C61.1007 48.4334 61.3687 48.1591 61.7007 48.1591H63.919C64.2502 48.1591 64.519 48.4334 64.519 48.7714Z" fill="#07172E"/>
<defs>
<filter id="filter0_d_0:188" x="0" y="-6" width="120" height="120" filterUnits="userSpaceOnUse" color-interpolation-filters="sRGB">
<feFlood flood-opacity="0" result="BackgroundImageFix"/>
<feColorMatrix in="SourceAlpha" type="matrix" values="0 0 0 0 0 0 0 0 0 0 0 0 0 0 0 0 0 0 127 0" result="hardAlpha"/>
<feOffset dy="4"/>
<feGaussianBlur stdDeviation="20"/>
<feComposite in2="hardAlpha" operator="out"/>
<feColorMatrix type="matrix" values="0 0 0 0 0.766667 0 0 0 0 0.786667 0 0 0 0 0.8 0 0 0 0.15 0"/>
<feBlend mode="normal" in2="BackgroundImageFix" result="effect1_dropShadow_0:188"/>
<feBlend mode="normal" in="SourceGraphic" in2="effect1_dropShadow_0:188" result="shape"/>
</filter>
</defs>
</svg>
