<svg width="120" height="114" viewBox="0 0 120 114" fill="none" xmlns="http://www.w3.org/2000/svg">
<g filter="url(#filter0_d_0:185)">
<circle cx="60" cy="50" r="20" fill="#F1F4F8"/>
</g>
<path d="M67.0907 46.506C67.659 46.9678 67.9927 47.6626 68 48.3995L67.9931 54.8302C67.9931 56.577 66.5915 57.993 64.8626 57.993H63.4743C62.6375 57.993 61.958 57.3097 61.9542 56.4642V53.5609C61.9542 53.3363 61.7739 53.1542 61.5516 53.1542H59.4692C59.3612 53.1541 59.2578 53.198 59.1821 53.2758C59.1064 53.3536 59.0648 53.4588 59.0666 53.5679V54.6759C59.0666 55.0245 58.7869 55.3071 58.4419 55.3071C58.0969 55.3071 57.8172 55.0245 57.8172 54.6759V53.5679C57.8172 53.1234 57.992 52.6971 58.3031 52.3828C58.6142 52.0684 59.0362 51.8919 59.4762 51.8919H61.5585C62.472 51.8957 63.2106 52.645 63.2105 53.5679V56.4642C63.2105 56.6114 63.3286 56.7307 63.4743 56.7307H64.8973C65.9323 56.7307 66.7714 55.883 66.7714 54.8372V48.4135C66.7663 48.0576 66.6032 47.7229 66.3272 47.5018L61.5308 43.6378C60.926 43.1347 60.0532 43.1347 59.4484 43.6378L57.9075 44.8019C57.6219 45.0091 57.2241 44.9432 57.019 44.6546C56.8139 44.3661 56.8791 43.9642 57.1647 43.757L58.6849 42.642C59.7389 41.786 61.2403 41.786 62.2943 42.642L67.0907 46.506Z" fill="#07172E"/>
<path d="M56.1305 56.7237H59.3235V56.7377C59.6685 56.7377 59.9482 57.0203 59.9482 57.3688C59.9482 57.7174 59.6685 58 59.3235 58H56.1305C54.4032 57.9961 53.0038 56.5824 53 54.8372V48.4135C53.011 47.6712 53.3559 46.9743 53.9371 46.52L54.5132 46.0853C54.7845 45.956 55.1084 46.0399 55.2848 46.2849C55.4612 46.53 55.4403 46.8671 55.2351 47.0881L54.6728 47.5089C54.4064 47.7325 54.2515 48.0636 54.2494 48.4135V54.8302C54.257 55.8755 55.0959 56.7199 56.1305 56.7237Z" fill="#07172E"/>
<defs>
<filter id="filter0_d_0:185" x="0" y="-6" width="120" height="120" filterUnits="userSpaceOnUse" color-interpolation-filters="sRGB">
<feFlood flood-opacity="0" result="BackgroundImageFix"/>
<feColorMatrix in="SourceAlpha" type="matrix" values="0 0 0 0 0 0 0 0 0 0 0 0 0 0 0 0 0 0 127 0" result="hardAlpha"/>
<feOffset dy="4"/>
<feGaussianBlur stdDeviation="20"/>
<feComposite in2="hardAlpha" operator="out"/>
<feColorMatrix type="matrix" values="0 0 0 0 0.766667 0 0 0 0 0.786667 0 0 0 0 0.8 0 0 0 0.15 0"/>
<feBlend mode="normal" in2="BackgroundImageFix" result="effect1_dropShadow_0:185"/>
<feBlend mode="normal" in="SourceGraphic" in2="effect1_dropShadow_0:185" result="shape"/>
</filter>
</defs>
</svg>
