<svg width="20" height="20" viewBox="0 0 20 20" fill="none" xmlns="http://www.w3.org/2000/svg">
<path d="M17.1538 0H2.84615C1.23077 0 0 1.23077 0 2.84615V17.1538C0 18.7692 1.23077 20 2.84615 20H17.1538C18.7692 20 20 18.7692 20 17.1538V2.84615C20 1.23077 18.7692 0 17.1538 0ZM10 16C13.3077 16 16 13.3846 16 10.2308C16 9.69231 15.9231 9.07692 15.7692 8.61539H17.4615V16.7692C17.4615 17.1538 17.1538 17.5385 16.6923 17.5385H3.30769C2.92308 17.5385 2.53846 17.2308 2.53846 16.7692V8.53846H4.3077C4.15385 9.07692 4.07693 9.61539 4.07693 10.1538C4 13.3846 6.69231 16 10 16ZM10 13.6923C7.84615 13.6923 6.15385 12 6.15385 9.92308C6.15385 7.84616 7.84615 6.15385 10 6.15385C12.1538 6.15385 13.8462 7.84616 13.8462 9.92308C13.8462 12.0769 12.1538 13.6923 10 13.6923ZM17.3846 5.46154C17.3846 5.92308 17 6.30769 16.5385 6.30769H14.3846C13.9231 6.30769 13.5385 5.92308 13.5385 5.46154V3.38462C13.5385 2.92308 13.9231 2.53846 14.3846 2.53846H16.5385C17 2.53846 17.3846 2.92308 17.3846 3.38462V5.46154Z" fill="#3586FF"/>
</svg>
