<svg width="104" height="22" viewBox="0 0 104 22" fill="none" xmlns="http://www.w3.org/2000/svg">
<path d="M32.7766 7.06V10.14H38.6704V13.2H32.7766V18H29V4H39.4715V7.06H32.7766Z" fill="#07172E"/>
<path d="M41.2377 4H45.0143V18H41.2377V4Z" fill="#07172E"/>
<path d="M50.5431 7.14H46.4423V4H58.4015V7.14H54.3197V18H50.5431V7.14Z" fill="#07172E"/>
<path d="M59.8085 4H63.5851V14.86H69.9557V18H59.8085V4Z" fill="#07172E"/>
<path d="M71.4501 4H75.2267V18H71.4501V4Z" fill="#07172E"/>
<path d="M90.6167 4V18H87.5077L81.6139 10.54V18H77.9136V4H81.0226L86.9164 11.46V4H90.6167Z" fill="#07172E"/>
<path d="M104 14.94V18H93.2806V4H103.752V7.06H97.019V9.42H102.951V12.38H97.019V14.94H104Z" fill="#07172E"/>
<path d="M11 22C4.92556 22 0 17.0744 0 11H11V22Z" fill="#3586FF"/>
<path d="M0 0C6.07444 0 11 4.92556 11 11H0V0Z" fill="#3586FF"/>
<path d="M11 22C17.0744 22 22 17.0744 22 11H11V22Z" fill="#3586FF"/>
<path d="M22 11C22 4.92556 17.0744 0 11 0V11H22Z" fill="#3586FF"/>
</svg>
