<svg width="16" height="16" viewBox="0 0 16 16" fill="none" xmlns="http://www.w3.org/2000/svg">
<path d="M12.4013 15.9336C12.3029 15.936 12.2052 15.9112 12.1196 15.8616L8.0082 13.6971L4.3881 15.6456C3.79755 15.9656 3.05816 15.7464 2.73808 15.1553C2.73408 15.1481 2.73008 15.1409 2.72608 15.1329C2.60045 14.8857 2.55644 14.6066 2.59965 14.333L3.30383 10.1783L0.36069 7.19945C-0.12023 6.70351 -0.12023 5.9148 0.36069 5.41806C0.547937 5.22128 0.795999 5.0941 1.06487 5.0573L5.10027 4.44457L6.89512 0.706618C7.17439 0.0986906 7.89377 -0.168478 8.50272 0.110689C8.76679 0.231475 8.97804 0.44345 9.09887 0.706618L10.9017 4.45737L14.9507 5.0773C15.278 5.12609 15.5717 5.30687 15.7637 5.57644C16.1222 6.09158 16.0678 6.7875 15.6341 7.24104L12.7046 10.1847L13.1127 12.4236C13.1695 12.7596 12.9478 13.0803 12.6126 13.1435C12.2829 13.2027 11.9676 12.9836 11.9084 12.6532L11.4931 10.4143C11.4235 10.0039 11.5539 9.58476 11.8452 9.288L14.7819 6.32355L10.7329 5.69563C10.3224 5.62923 9.97429 5.35727 9.81025 4.97571L8.0082 1.24095L6.18374 5.0349C6.0197 5.41726 5.67162 5.68843 5.26111 5.75482L1.22571 6.36755L4.14083 9.32719C4.43131 9.61916 4.56174 10.0327 4.49292 10.4383L3.78875 14.593L7.40805 12.6524C7.76654 12.4508 8.20425 12.4508 8.56274 12.6524L12.6686 14.8169C12.919 14.9537 13.0463 15.2425 12.9782 15.5201C12.9158 15.7976 12.671 15.9952 12.3869 16L12.4013 15.9336Z" fill="#07172E"/>
</svg>
