<svg width="16" height="16" viewBox="0 0 16 16" fill="none" xmlns="http://www.w3.org/2000/svg">
<path d="M0 8C0 3.588 3.5888 0 8 0C12.4112 0 16 3.588 16 8C16 12.4112 12.4112 16 8 16C5.4984 16 3.1864 14.8616 1.6584 12.8784C1.4624 12.6232 1.5104 12.2576 1.7648 12.0624C2.0192 11.8656 2.3832 11.9144 2.58 12.168C3.8864 13.864 5.8616 14.8368 8 14.8368C11.7696 14.8368 14.8368 11.7704 14.8368 8C14.8368 4.2304 11.7696 1.1632 8 1.1632C4.2304 1.1632 1.164 4.2304 1.164 8C1.164 8.3504 1.1896 8.6984 1.2416 9.0392C1.2896 9.356 1.072 9.6528 0.7544 9.7016C0.4352 9.7544 0.14 9.5328 0.092 9.2152C0.0312 8.8168 0 8.408 0 8Z" fill="#200E32"/>
<path d="M7.14728 4.66992C7.14728 4.34832 7.40808 4.08752 7.72888 4.08752C8.04968 4.08752 8.31048 4.34832 8.31048 4.66992V8.22672L11.0497 9.86032C11.3257 10.0251 11.4161 10.3819 11.2513 10.6579C11.1433 10.8395 10.9497 10.9411 10.7521 10.9411C10.6505 10.9411 10.5473 10.9147 10.4545 10.8595L7.43048 9.05632C7.25528 8.95072 7.14728 8.76112 7.14728 8.55632V4.66992Z" fill="#200E32"/>
</svg>
