<svg width="22" height="12" viewBox="0 0 22 12" fill="none" xmlns="http://www.w3.org/2000/svg">
<path d="M21.7957 10.7671C21.7957 10.6849 21.7081 10.6849 21.7081 10.6027C21.358 9.94521 20.5702 9.12329 19.5198 8.21918C18.9946 7.80822 18.732 7.47945 18.5569 7.31507C18.2943 6.9863 18.2943 6.73973 18.3819 6.41097C18.4694 6.16439 18.8195 5.75342 19.4323 5.01369C19.7824 4.60274 19.9574 4.35617 20.22 4.10959C21.533 2.46575 22.1458 1.39725 21.9707 0.904103L21.8832 0.821918C21.7957 0.739726 21.7081 0.657537 21.533 0.657537C21.358 0.575345 21.0954 0.575345 20.8328 0.657537H17.5066C17.419 0.657537 17.419 0.657537 17.2439 0.657537C17.1564 0.657537 17.0689 0.657537 17.0689 0.657537H16.9814H16.8938L16.8063 0.739721C16.7187 0.821913 16.7187 0.821911 16.7187 0.904103C16.3686 1.80821 15.9309 2.54794 15.4933 3.36986C15.2307 3.78082 14.9681 4.19178 14.7055 4.52055C14.4429 4.84932 14.2678 5.09589 14.0928 5.26027C13.9177 5.42466 13.7426 5.50685 13.6551 5.67123C13.5676 5.75342 13.3925 5.83562 13.3925 5.75343C13.305 5.75343 13.2174 5.75342 13.2174 5.67123C13.1299 5.58904 13.0424 5.50684 12.9548 5.42465C12.8673 5.34246 12.8673 5.17808 12.7798 5.01369C12.7798 4.84931 12.7798 4.68493 12.7798 4.60274C12.7798 4.52054 12.7798 4.27398 12.7798 4.10959C12.7798 3.86302 12.7798 3.69863 12.7798 3.61644C12.7798 3.36986 12.7798 3.0411 12.7798 2.71233C12.7798 2.38357 12.7798 2.13698 12.7798 1.9726C12.7798 1.80822 12.7798 1.56164 12.7798 1.39726C12.7798 1.15068 12.7798 0.986294 12.7798 0.904103C12.7798 0.821911 12.6923 0.657532 12.6923 0.57534C12.6047 0.493148 12.5172 0.410954 12.4296 0.328762C12.3421 0.24657 12.167 0.246573 12.0795 0.164381C11.6419 0.0821893 11.1167 0 10.5039 0C9.10341 0 8.14055 0.0821943 7.79042 0.246578C7.61535 0.32877 7.44029 0.410957 7.35276 0.57534C7.17769 0.739724 7.17768 0.821918 7.26522 0.821918C7.70288 0.90411 8.05302 1.06849 8.22808 1.31506L8.31562 1.47946C8.40315 1.56165 8.40314 1.72602 8.49067 1.9726C8.5782 2.21917 8.57821 2.46575 8.57821 2.79452C8.57821 3.28767 8.57821 3.78082 8.57821 4.10959C8.57821 4.52055 8.49067 4.76712 8.49067 5.01369C8.49067 5.26027 8.40315 5.42466 8.31562 5.50685C8.22809 5.67123 8.22808 5.75343 8.14054 5.75343C8.14054 5.75343 8.14054 5.83561 8.05301 5.83561C7.96547 5.83561 7.87795 5.91781 7.70288 5.91781C7.61535 5.91781 7.44029 5.83562 7.35276 5.75343C7.17769 5.67124 7.00262 5.50685 6.91509 5.34247C6.74003 5.17809 6.56496 4.9315 6.38989 4.60274C6.21482 4.27397 5.95222 3.94521 5.77715 3.45205L5.6021 3.12329C5.51457 2.95891 5.3395 2.63014 5.16444 2.21918C4.98937 1.80822 4.8143 1.47946 4.63924 1.0685C4.5517 0.904113 4.46418 0.821913 4.37665 0.739721H4.28911C4.28911 0.739721 4.20157 0.657537 4.11403 0.657537C4.0265 0.657537 3.93898 0.57534 3.85145 0.57534H0.700264C0.350133 0.57534 0.175071 0.65753 0.087538 0.739721L0 0.821918C0 0.821918 0 0.904108 0 0.986299C0 1.06849 5.34127e-06 1.15068 0.087538 1.31506C0.525202 2.30136 1.0504 3.28767 1.57559 4.27397C2.10079 5.17808 2.62599 6 2.97612 6.57535C3.41378 7.15069 3.76391 7.72603 4.20157 8.21918C4.63924 8.71233 4.90183 9.0411 4.98936 9.20548C5.16443 9.36987 5.25195 9.45205 5.33949 9.53424L5.6021 9.78082C5.77717 9.94521 6.03976 10.1918 6.38989 10.4384C6.74002 10.6849 7.17768 10.9315 7.61534 11.1781C8.05301 11.4247 8.57821 11.5891 9.10341 11.7534C9.71614 11.9178 10.2413 12 10.7665 11.9178H12.0795C12.3421 11.9178 12.5172 11.8356 12.6923 11.6712L12.7798 11.589C12.7798 11.5068 12.8673 11.5069 12.8673 11.4247C12.8673 11.3425 12.8673 11.2603 12.8673 11.0959C12.8673 10.7671 12.8673 10.5206 12.9548 10.274C13.0424 10.0274 13.0424 9.86302 13.1299 9.69864C13.2175 9.53426 13.305 9.45206 13.3925 9.36986C13.48 9.28767 13.5676 9.20548 13.5676 9.20548H13.6551C13.8302 9.12329 14.0928 9.20548 14.2678 9.36986C14.5304 9.53425 14.793 9.78083 14.9681 10.0274C15.1432 10.274 15.4058 10.5206 15.7559 10.8493C16.106 11.1781 16.3686 11.4247 16.5437 11.5069L16.8063 11.6712C16.9813 11.7534 17.1564 11.8356 17.419 11.9178C17.6816 12 17.8567 12 18.0317 12L21.0079 11.9178C21.2705 11.9178 21.533 11.8356 21.7081 11.7534C21.8832 11.6712 21.9707 11.589 21.9707 11.4247C21.9707 11.3425 21.9707 11.1781 21.9707 11.0959C21.7956 10.9315 21.7957 10.8493 21.7957 10.7671Z" fill="#3586FF"/>
</svg>
